# xmcd
#
# Track frame offsets:
#	150
#	19128
#	37387
#	55652
#	76815
#	93399
#	113843
#	128198
#	146050
#	168194
#	186606
#	209640
#	237425
#	254037
#
# Disc length: 3692 seconds
#
# Revision: 0
# Processed by: cddbd v1.4PL0 Copyright (c) Steve Scherf et al.
# Submitted via: dBpowerAMP V4.0
#
DISCID=d20e6a0e
DTITLE=kenan dogulu - guzeller icinden
DYEAR=2003
DGENRE=Pop
TTITLE0=kusura bakma
TTITLE1=askim askim
TTITLE2=sen beni oyle bil
TTITLE3=evvel zaman icinde
TTITLE4=don gel
TTITLE5=x
TTITLE6=guzeller icinden
TTITLE7=y
TTITLE8=z
TTITLE9=sen beni tanimamissin
TTITLE10=donence
TTITLE11=nilufer- beni kalbimden vurdun
TTITLE12=sezen aksu- arka sokaklar
TTITLE13=sezen aksu- yaz bitmeden
EXTD=fatih eser
EXTT0=
EXTT1=
EXTT2=
EXTT3=
EXTT4=
EXTT5=
EXTT6=
EXTT7=
EXTT8=
EXTT9=
EXTT10=
EXTT11=
EXTT12=
EXTT13=
PLAYORDER=
